# xmcd CD database file
#
# Track frame offsets:
#	150
#	15000
#	27750
#	37500
#	49988
#	61891
#	84346
#	92321
#	106897
#	112820
#	123232
#	137963
#	149265
#
# Disc length: 2314 seconds
#
# Revision: 0
# Processed by: cddbd v1.5.2PL0 Copyright (c) Steve Scherf et al.
# Submitted via: CDex 1.51
#
DISCID=8e09080d
DTITLE=JOSE MANUEL PAGAN  - PAISAJES DE LA IMAGINACION
DYEAR=2006
DGENRE=New Age
TTITLE0=La Creación
TTITLE1=El Paraiso
TTITLE2=Canción del Enviado
TTITLE3=Agua y Angeles
TTITLE4=Canción de Luna
TTITLE5=Otoño
TTITLE6=Recuerdos
TTITLE7=El Círculo
TTITLE8=Luz y Sombra
TTITLE9=La Noche
TTITLE10=Enigma
TTITLE11=Melodia Azul
TTITLE12=Transformación
EXTD=YEAR: 2006
EXTT0=
EXTT1=
EXTT2=
EXTT3=
EXTT4=
EXTT5=
EXTT6=
EXTT7=
EXTT8=
EXTT9=
EXTT10=
EXTT11=
EXTT12=
PLAYORDER=
